{"title":"The Bachelorette Australia - S02E05","uid":15962004,"size":392766325,"categoryP":"video","categoryS":"tv_shows","magnet":"?xt=urn:btih:cb9b4c6d60c3422e0600463f9d201957b2794dfc&amp;dn=The+Bachelorette+Australia+-+S02E05&amp;tr=udp%3A%2F%2Ftracker.leechers-paradise.org%3A6969&amp;tr=udp%3A%2F%2Fzer0day.ch%3A1337&amp;tr=udp%3A%2F%2Fopen.demonii.com%3A1337&amp;tr=udp%3A%2F%2Ftracker.coppersurfer.tk%3A6969&amp;tr=udp%3A%2F%2Fexodus.desync.com%3A6969","seeders":8,"leechers":11,"uploader":"Bullrout","files":1,"time":1475676528,"description":"The Bachelorette Australia - S02E05\r\n\r\nOne lucky Bachelor and Georgia will be swept up in the glamour of the Big Apple. Later, a battle of medieval proportions breaks out when the Bachelors swap their suits for shining armour.\r\n\r\nComplete name : The Bachelorette Australia - S02E05.mp4\r\nFormat : MPEG-4\r\nFormat profile : Base Media / Version 2\r\nCodec ID : mp42 (mp42/isom/avc1)\r\nFile size : 375 MiB\r\nDuration : 47 min 19 s\r\nOverall bit rate mode : Variable\r\nOverall bit rate : 1 106 kb/s\r\n\r\nVideo\r\nID : 2\r\nFormat : AVC\r\nFormat/Info : Advanced Video Codec\r\nFormat profile :   \r\nFormat settings, CABAC : Yes\r\nFormat settings, ReFrames : 3 frames\r\nCodec ID : avc1\r\nCodec ID/Info : Advanced Video Coding\r\nDuration : 47 min 19 s\r\nBit rate mode : Variable\r\nBit rate : 975 kb/s\r\nMaximum bit rate : 1 000 kb/s\r\nWidth : 720 pixels\r\nHeight : 404 pixels\r\nDisplay aspect ratio : 16:9\r\nOriginal display aspect ratio : 16:9\r\nFrame rate mode : Constant\r\nFrame rate : 25.000 FPS\r\nStandard : PAL\r\nColor space : YUV\r\nChroma subsampling : 4:2:0\r\nBit depth : 8 bits\r\nScan type : Progressive\r\nBits/(Pixel*Frame) : 0.134\r\nStream size : 330 MiB (88%)\r\nWriting library : x264 core 112\r\nColor range : Limited\r\nColor primaries : BT.601 PAL\r\nTransfer characteristics : BT.470 System B, BT.470 System G\r\nMatrix coefficients : BT.601\r\n\r\nAudio\r\nID : 1\r\nFormat : AAC\r\nFormat/Info : Advanced Audio Codec\r\nFormat profile : LC\r\nCodec ID : 40\r\nDuration : 47 min 19 s\r\nBit rate mode : Variable\r\nBit rate : 128 kb/s\r\nMaximum bit rate : 576 kb/s\r\nChannel(s) : 2 channels\r\nChannel positions : Front: L R\r\nSampling rate : 48.0 kHz\r\nFrame rate : 46.875 FPS (1024 spf)\r\nCompression mode : Lossy\r\nStream size : 43.3 MiB (12%)","torrent":{"xt":"urn:btih:cb9b4c6d60c3422e0600463f9d201957b2794dfc","amp;dn":"The+Bachelorette+Australia+-+S02E05","amp;tr":["udp%3A%2F%2Ftracker.leechers-paradise.org%3A6969","udp%3A%2F%2Fzer0day.ch%3A1337","udp%3A%2F%2Fopen.demonii.com%3A1337","udp%3A%2F%2Ftracker.coppersurfer.tk%3A6969","udp%3A%2F%2Fexodus.desync.com%3A6969"],"infoHash":"cb9b4c6d60c3422e0600463f9d201957b2794dfc","infoHashBuffer":{"type":"Buffer","data":[203,155,76,109,96,195,66,46,6,0,70,63,157,32,25,87,178,121,77,252]},"announce":[],"urlList":[]}}